<?xml version="1.0" encoding="UTF-8" standalone="no"?>
<svg
   xmlns:dc="http://purl.org/dc/elements/1.1/"
   xmlns:cc="http://creativecommons.org/ns#"
   xmlns:rdf="http://www.w3.org/1999/02/22-rdf-syntax-ns#"
   xmlns:svg="http://www.w3.org/2000/svg"
   xmlns="http://www.w3.org/2000/svg"
   width="105.83334mm"
   height="79.375mm"
   viewBox="0 0 105.83334 79.375"
   version="1.1"
   id="svg2269">
  <defs
     id="defs2263" />
  <metadata
     id="metadata2266">
    <rdf:RDF>
      <cc:Work
         rdf:about="">
        <dc:format>image/svg+xml</dc:format>
        <dc:type
           rdf:resource="http://purl.org/dc/dcmitype/StillImage" />
        <dc:title></dc:title>
      </cc:Work>
    </rdf:RDF>
  </metadata>
  <rect
     y="1.4210855e-14"
     x="-3.5527137e-15"
     height="79.375"
     width="105.83334"
     id="rect814"
     style="opacity:1;vector-effect:none;fill:#ffffff;fill-opacity:1;stroke:none;stroke-width:0.16684404;stroke-linecap:butt;stroke-linejoin:miter;stroke-miterlimit:4;stroke-dasharray:none;stroke-dashoffset:0;stroke-opacity:1" />
  <g
     id="layer1"
     transform="translate(-18.689825,-52.193334)">
    <path
       d="m -411.03906,177.81836 c -2.78053,0 -5.00781,2.22534 -5.00782,5.00586 V 199.25 h 5.19727 v -5.19531 h 69.49023 v 49.38476 h -16.20898 v 5.03321 h 16.42578 c 2.78056,0 5.00586,-2.25265 5.00586,-5.03321 v -60.61523 c 0,-2.78052 -2.2253,-5.00586 -5.00586,-5.00586 z m -24.49024,24.48828 c -2.78052,0 -5.00586,2.22729 -5.00586,5.00781 v 60.61524 c 0,2.78052 2.22534,5.0332 5.00586,5.0332 h 69.89649 c 2.78056,0 5.00781,-2.25268 5.00781,-5.0332 v -60.61524 c 0,-2.78052 -2.22725,-5.00781 -5.00781,-5.00781 z m 0.18946,16.23633 h 69.49218 v 49.38672 h -69.49218 z m 47.29882,6.36133 -0.10546,6.74218 h -20.59961 v 8.55079 h 20.47851 l -0.0918,6.5039 10.91602,-10.73242 z m -24.7871,12.70117 -10.91797,10.74414 10.59765,11.05078 0.10742,-6.74219 h 20.59766 v -8.55078 h -20.47852 z m 41.61523,52.69531 v 20.88477 l 6.95312,0.002 V 299 l 6.97852,12.21289 6.95313,-0.0254 -0.0254,-20.85938 h -6.92773 l 0.0273,12.23829 -7.00586,-12.23829 z m -26.04102,0.0254 v 20.85938 h 20.85938 v -3.48828 h -13.90625 v -5.15625 h 10.4414 v -3.51563 l -10.4414,0.0254 v -5.25976 h 13.90625 v -3.46485 z m -49.42773,0.0274 6.97852,11.32812 v 9.53125 l 6.8496,-0.0273 -0.0254,-11.17188 6.97852,-9.66015 h -5.25977 l -4.14062,6.17187 L -439,290.35352 Z m 101.43164,0 v 20.83203 h 13.88086 c 4.63541,0 6.95312,-1.15388 6.95312,-3.46289 v -13.90625 c 0,-2.30902 -2.31771,-3.46289 -6.95312,-3.46289 z m -118.04688,0.0254 c -4.61804,0 -6.92578,1.16386 -6.92578,3.49023 v 5.15625 c 0,1.14583 2.30773,2.2997 6.92578,3.46289 l 6.95313,1.77149 v 3.46289 h -6.95313 v -3.46289 l -6.92578,-0.0527 v 3.51563 c 0,2.30901 2.30773,3.46289 6.92578,3.46289 l 6.95313,0.002 c 4.61805,0 6.92773,-1.15583 6.92773,-3.46484 v -5.18164 c 0,-1.16319 -2.30968,-2.31706 -6.92773,-3.4629 l -6.95313,-1.74609 v -3.48828 h 6.95313 v 3.46289 h 6.92773 v -3.46289 c 0,-2.30901 -2.30968,-3.46484 -6.92773,-3.46484 z m 46.95313,0 c -4.61805,0 -6.92578,1.16386 -6.92578,3.49023 v 5.15625 c 0,1.14583 2.30773,2.2997 6.92578,3.46289 l 6.95313,1.77149 v 3.46289 h -6.95313 v -3.46289 l -6.92578,-0.0527 v 3.51563 c 0,2.30901 2.30773,3.46289 6.92578,3.46289 l 6.95313,0.002 c 4.61804,0 6.92773,-1.15583 6.92773,-3.46484 v -5.18164 c 0,-1.16319 -2.30969,-2.31706 -6.92773,-3.4629 l -6.95313,-1.74609 v -3.48828 h 6.95313 v 3.46289 h 6.92773 v -3.46289 c 0,-2.30901 -2.30969,-3.46484 -6.92773,-3.46484 z m 78.04687,3.4375 h 6.92774 v 13.90625 h -6.92774 z"
       transform="matrix(0.36292357,0,0,0.36292357,215.80305,3.1403396)"
       style="font-style:normal;font-variant:normal;font-weight:normal;font-stretch:normal;font-size:14.1111002px;line-height:1.25;font-family:'Corporate HQ';-inkscape-font-specification:'Corporate HQ';text-align:start;letter-spacing:0px;word-spacing:0px;text-anchor:start;fill:#000000;stroke-width:0.99999899"
       id="path1770" />
  </g>
</svg>
